<?xml version="1.0" encoding="utf-8"?>
<!-- Generator: Adobe Illustrator 24.0.0, SVG Export Plug-In . SVG Version: 6.00 Build 0)  -->
<svg version="1.1" id="Layer_1" xmlns="http://www.w3.org/2000/svg" xmlns:xlink="http://www.w3.org/1999/xlink" x="0px" y="0px"
	 viewBox="0 0 203.06 207.36" style="enable-background:new 0 0 203.06 207.36;" xml:space="preserve">
<style type="text/css">
	.st0{fill:#F39200;}
	.st1{opacity:0.42;fill:url(#SVGID_1_);}
	.st2{opacity:0.42;fill:url(#SVGID_2_);}
	.st3{opacity:0.42;fill:url(#SVGID_3_);}
	.st4{fill:url(#SVGID_4_);}
	.st5{opacity:0.2;fill:#A6D0CE;}
	.st6{opacity:0.4;fill:url(#SVGID_5_);}
	.st7{fill:#878787;}
	.st8{fill:#00A19A;}
	.st9{fill:#FFFFFF;}
	.st10{opacity:0.42;fill:url(#SVGID_6_);}
	.st11{opacity:0.42;fill:url(#SVGID_7_);}
	.st12{opacity:0.42;fill:url(#SVGID_8_);}
	.st13{fill:url(#SVGID_9_);}
	.st14{opacity:0.4;fill:url(#SVGID_10_);}
</style>
<g>
	<g>
		<path class="st0" d="M-897.71,64.29l-146.4-58.6c-16.88-6.76-34.75,7.29-32.16,25.29l22.45,156.08c2.59,18,23.69,26.45,37.99,15.2
			l123.94-97.48C-877.59,93.55-880.83,71.05-897.71,64.29z M-901.36,103.77l-109.66,86.25c-12.65,9.95-31.32,2.47-33.61-13.45
			l-19.86-138.09c-2.29-15.92,13.52-28.36,28.45-22.38l129.52,51.84C-891.58,73.92-888.71,93.83-901.36,103.77z"/>
	</g>
	<g>
		<path class="st0" d="M-897.71,64.29l-146.4-58.6c-16.88-6.76-34.75,7.29-32.16,25.29l22.45,156.08c2.59,18,23.69,26.45,37.99,15.2
			l123.94-97.48C-877.59,93.55-880.83,71.05-897.71,64.29z M-901.36,103.77l-109.66,86.25c-12.65,9.95-31.32,2.47-33.61-13.45
			l-19.86-138.09c-2.29-15.92,13.52-28.36,28.45-22.38l129.52,51.84C-891.58,73.92-888.71,93.83-901.36,103.77z"/>
	</g>
	<radialGradient id="SVGID_1_" cx="-1048.3817" cy="10.4324" r="22.1582" gradientUnits="userSpaceOnUse">
		<stop  offset="0" style="stop-color:#7D4E24"/>
		<stop  offset="1" style="stop-color:#FFFFFF"/>
	</radialGradient>
	<path class="st1" d="M-1042.04,14.66l2.92-3.59c0,0,0.26-1.27,0.63-3.13l-5.62-2.25c-14.42-5.77-29.54,3.64-32.04,17.72
		c3.65,1.22,8.64,2.87,12.97,4.2C-1059.8,19.35-1051.25,13.85-1042.04,14.66z"/>
	<radialGradient id="SVGID_2_" cx="-966.632" cy="41.3608" r="21.5865" gradientUnits="userSpaceOnUse">
		<stop  offset="0" style="stop-color:#7D4E24"/>
		<stop  offset="1" style="stop-color:#FFFFFF"/>
	</radialGradient>
	<path class="st2" d="M-930.6,58.3l1.37-6.62l-52.8-21.13c-0.49,1.98-1.06,4.3-1.59,6.54L-930.6,58.3z"/>
	<radialGradient id="SVGID_3_" cx="-942.7601" cy="140.8619" r="31.7172" gradientUnits="userSpaceOnUse">
		<stop  offset="0" style="stop-color:#7D4E24"/>
		<stop  offset="1" style="stop-color:#FFFFFF"/>
	</radialGradient>
	<polygon class="st3" points="-990.48,173.87 -987.32,179.85 -922.1,128.56 -924.26,121.79 	"/>
	
		<radialGradient id="SVGID_4_" cx="-2046.308" cy="1806.7446" r="93.5556" fx="-2114.4189" fy="1742.6077" gradientTransform="matrix(0 1 -1 0 828.6993 2137.1248)" gradientUnits="userSpaceOnUse">
		<stop  offset="0" style="stop-color:#56B4B9"/>
		<stop  offset="0.1011" style="stop-color:#4EB0B3"/>
		<stop  offset="0.1525" style="stop-color:#4BADB0"/>
		<stop  offset="1" style="stop-color:#008A84"/>
	</radialGradient>
	<path class="st4" d="M-896.69,78.24l-130.23-75.19c-15.02-8.67-33.79,2.17-33.79,19.51v150.37c0,17.34,18.77,28.18,33.79,19.51
		l130.23-75.19C-881.68,108.59-881.68,86.91-896.69,78.24l-130.23-75.19c-15.02-8.67-33.79,2.17-33.79,19.51v150.37
		c0,17.34,18.77,28.18,33.79,19.51l130.23-75.19C-881.68,108.59-881.68,86.91-896.69,78.24z"/>
	<path class="st5" d="M-1028.38,154.85c-9.55-16.86-15-36.35-15-57.1c0-21.6,5.91-41.82,16.18-59.14c5.34-9,11.86-17.22,19.35-24.44
		l-19.26-11.12c-15.02-8.67-33.79,2.17-33.79,19.51v20.67v106.5v23.2c0,17.34,18.77,28.18,33.79,19.51l19.26-11.12
		C-1015.9,173.56-1022.83,164.65-1028.38,154.85z"/>
	<path class="st5" d="M-896.89,78.24l-17.44-10.07l-93.53-54l-19.26-11.12c-15.02-8.67-33.79,2.17-33.79,19.51v20.67
		c10.33-3.01,21.26-4.64,32.56-4.64c0.38,0,0.76,0.01,1.15,0.01c43.13,0.42,80.62,24.35,100.29,59.59
		c5.14,9.21,9.06,19.19,11.55,29.72l18.48-10.67C-881.87,108.59-881.87,86.91-896.89,78.24z"/>
	<path class="st5" d="M-896.89,78.24l-17.44-10.07c-2.79,10.69-7.06,20.77-12.59,30.03c-20.26,33.94-57.34,56.67-99.74,56.67
		c-0.58,0-1.15-0.01-1.72-0.02c-11.31-0.16-22.23-1.94-32.53-5.12v23.2c0,17.34,18.77,28.18,33.79,19.51l19.26-11.12l92.49-53.4
		l18.48-10.67C-881.87,108.59-881.87,86.91-896.89,78.24z"/>
	
		<radialGradient id="SVGID_5_" cx="-2039.8398" cy="1823.7659" r="93.5556" fx="-2054.1135" fy="1826.5326" gradientTransform="matrix(0 1 -1 0 828.6993 2137.1248)" gradientUnits="userSpaceOnUse">
		<stop  offset="0" style="stop-color:#56B4B9;stop-opacity:0"/>
		<stop  offset="0.2119" style="stop-color:#51B1B5;stop-opacity:0.2119"/>
		<stop  offset="0.4535" style="stop-color:#43A6A8;stop-opacity:0.4535"/>
		<stop  offset="0.7097" style="stop-color:#2B9695;stop-opacity:0.7097"/>
		<stop  offset="0.9746" style="stop-color:#00817B;stop-opacity:0.9746"/>
		<stop  offset="1" style="stop-color:#007E78"/>
	</radialGradient>
	<path class="st6" d="M-896.69,78.24l-130.23-75.19c-15.02-8.67-33.79,2.17-33.79,19.51v150.37c0,17.34,18.77,28.18,33.79,19.51
		l130.23-75.19C-881.68,108.59-881.68,86.91-896.69,78.24l-130.23-75.19c-15.02-8.67-33.79,2.17-33.79,19.51v150.37
		c0,17.34,18.77,28.18,33.79,19.51l130.23-75.19C-881.68,108.59-881.68,86.91-896.69,78.24z"/>
	<g>
		<path class="st7" d="M-853.79,115.38l-1.5-0.33c0.18-0.77,0.48-1.32,0.9-1.66c0.42-0.34,1.02-0.5,1.8-0.5c0.7,0,1.23,0.1,1.6,0.29
			c0.37,0.2,0.63,0.46,0.79,0.8s0.24,0.95,0.24,1.84l-0.01,2.35c0,0.66,0.03,1.15,0.08,1.47c0.05,0.32,0.15,0.67,0.29,1.03h-1.63
			l-0.21-0.83c-0.28,0.33-0.58,0.59-0.91,0.76c-0.32,0.17-0.66,0.25-1.03,0.25c-0.61,0-1.1-0.2-1.49-0.61
			c-0.39-0.41-0.58-0.95-0.58-1.63c0-0.43,0.08-0.81,0.24-1.13c0.16-0.32,0.38-0.58,0.67-0.77c0.29-0.19,0.74-0.36,1.37-0.51
			c0.76-0.18,1.3-0.34,1.6-0.49c0-0.42-0.03-0.7-0.09-0.83s-0.17-0.24-0.33-0.32c-0.16-0.08-0.39-0.13-0.68-0.13
			c-0.3,0-0.53,0.07-0.7,0.2C-853.55,114.76-853.69,115.01-853.79,115.38z M-851.59,117.02c-0.21,0.09-0.54,0.19-0.98,0.3
			c-0.51,0.13-0.85,0.28-1,0.45c-0.16,0.16-0.24,0.37-0.24,0.63c0,0.29,0.09,0.54,0.26,0.74c0.17,0.2,0.39,0.3,0.66,0.3
			c0.23,0,0.47-0.08,0.69-0.24s0.39-0.35,0.48-0.57c0.09-0.22,0.13-0.62,0.13-1.2V117.02z"/>
		<path class="st7" d="M-835.26,120.67v-1.14c-0.23,0.41-0.53,0.74-0.9,0.97c-0.37,0.23-0.76,0.35-1.17,0.35
			c-0.41,0-0.78-0.11-1.1-0.32c-0.32-0.21-0.57-0.52-0.73-0.92s-0.24-0.97-0.24-1.73v-4.82h1.65v3.49c0,1,0.02,1.63,0.08,1.9
			c0.05,0.27,0.16,0.48,0.33,0.63c0.17,0.15,0.38,0.22,0.62,0.22c0.28,0,0.53-0.1,0.76-0.29c0.23-0.19,0.39-0.44,0.46-0.75
			c0.07-0.3,0.11-0.97,0.11-2v-3.21h1.65v7.6H-835.26z"/>
		<path class="st7" d="M-817.3,120.67h-1.53v-1.12c-0.25,0.43-0.55,0.75-0.9,0.97c-0.34,0.22-0.7,0.33-1.06,0.33
			c-0.7,0-1.3-0.35-1.82-1.04c-0.52-0.7-0.78-1.69-0.78-2.98c0-1.3,0.25-2.28,0.76-2.94c0.5-0.66,1.13-0.99,1.87-0.99
			c0.35,0,0.67,0.09,0.98,0.26c0.3,0.18,0.58,0.44,0.83,0.79v-3.77h1.65V120.67z M-821.69,116.7c0,0.69,0.06,1.2,0.17,1.54
			s0.28,0.59,0.5,0.76c0.22,0.17,0.46,0.26,0.73,0.26c0.36,0,0.68-0.2,0.94-0.59c0.27-0.39,0.4-0.98,0.4-1.77
			c0-0.88-0.13-1.51-0.39-1.89c-0.26-0.38-0.59-0.58-0.99-0.58c-0.38,0-0.71,0.19-0.97,0.57S-821.69,115.94-821.69,116.7z"/>
		<path class="st7" d="M-806.67,112.03v-1.86h1.65v1.86H-806.67z M-806.67,120.67v-7.6h1.65v7.6H-806.67z"/>
		<path class="st7" d="M-794.73,116.76c0-0.75,0.15-1.42,0.44-2.04c0.3-0.61,0.68-1.07,1.16-1.38c0.48-0.31,1.01-0.46,1.61-0.46
			c1,0,1.79,0.39,2.36,1.18c0.57,0.79,0.86,1.71,0.86,2.76c0,0.78-0.15,1.49-0.45,2.12c-0.3,0.63-0.69,1.11-1.17,1.42
			c-0.48,0.32-1.02,0.48-1.59,0.48c-0.93,0-1.69-0.35-2.31-1.06C-794.42,119.08-794.73,118.07-794.73,116.76z M-793.04,116.87
			c0,0.77,0.15,1.35,0.45,1.75c0.3,0.4,0.67,0.59,1.09,0.59c0.42,0,0.77-0.2,1.07-0.6s0.44-0.98,0.44-1.76
			c0-0.76-0.15-1.33-0.45-1.73s-0.66-0.6-1.08-0.6c-0.42,0-0.77,0.2-1.07,0.6C-792.89,115.52-793.04,116.1-793.04,116.87z"/>
		<path class="st7" d="M-765.72,113.07h1.53v1.12c0.21-0.4,0.49-0.72,0.83-0.95s0.71-0.35,1.11-0.35c0.71,0,1.33,0.34,1.84,1.02
			c0.51,0.68,0.77,1.64,0.77,2.89c0,1.31-0.26,2.31-0.77,3.01c-0.52,0.7-1.13,1.04-1.84,1.04c-0.33,0-0.64-0.08-0.92-0.24
			c-0.28-0.16-0.58-0.45-0.9-0.87v3.82h-1.65V113.07z M-764.09,116.74c0,0.86,0.14,1.5,0.42,1.9c0.28,0.41,0.62,0.61,1.01,0.61
			c0.38,0,0.69-0.19,0.95-0.56s0.39-0.99,0.39-1.84c0-0.81-0.13-1.41-0.4-1.79c-0.26-0.39-0.59-0.58-0.97-0.58
			c-0.4,0-0.73,0.19-1,0.56S-764.09,115.98-764.09,116.74z"/>
		<path class="st7" d="M-747.75,120.67h-1.65v-7.6h1.53v1.08c0.26-0.51,0.5-0.84,0.71-1.01c0.21-0.17,0.45-0.25,0.72-0.25
			c0.38,0,0.74,0.13,1.08,0.38l-0.52,1.75c-0.27-0.22-0.53-0.33-0.77-0.33c-0.23,0-0.43,0.08-0.6,0.25s-0.3,0.48-0.38,0.92
			c-0.08,0.45-0.11,1.26-0.11,2.45V120.67z"/>
		<path class="st7" d="M-736.06,116.76c0-0.75,0.15-1.42,0.44-2.04c0.3-0.61,0.68-1.07,1.16-1.38c0.48-0.31,1.01-0.46,1.61-0.46
			c1,0,1.79,0.39,2.36,1.18c0.57,0.79,0.86,1.71,0.86,2.76c0,0.78-0.15,1.49-0.45,2.12c-0.3,0.63-0.69,1.11-1.17,1.42
			c-0.48,0.32-1.02,0.48-1.59,0.48c-0.93,0-1.69-0.35-2.31-1.06C-735.75,119.08-736.06,118.07-736.06,116.76z M-734.37,116.87
			c0,0.77,0.15,1.35,0.45,1.75c0.3,0.4,0.67,0.59,1.09,0.59c0.42,0,0.77-0.2,1.07-0.6s0.44-0.98,0.44-1.76
			c0-0.76-0.15-1.33-0.45-1.73s-0.66-0.6-1.08-0.6c-0.42,0-0.77,0.2-1.07,0.6C-734.22,115.52-734.37,116.1-734.37,116.87z"/>
		<path class="st7" d="M-713.62,120.67h-1.53v-1.12c-0.25,0.43-0.55,0.75-0.9,0.97c-0.34,0.22-0.7,0.33-1.06,0.33
			c-0.7,0-1.3-0.35-1.82-1.04c-0.52-0.7-0.78-1.69-0.78-2.98c0-1.3,0.25-2.28,0.76-2.94c0.5-0.66,1.13-0.99,1.87-0.99
			c0.35,0,0.67,0.09,0.98,0.26c0.3,0.18,0.58,0.44,0.83,0.79v-3.77h1.65V120.67z M-718.01,116.7c0,0.69,0.06,1.2,0.17,1.54
			s0.28,0.59,0.5,0.76c0.22,0.17,0.46,0.26,0.73,0.26c0.36,0,0.68-0.2,0.94-0.59c0.27-0.39,0.4-0.98,0.4-1.77
			c0-0.88-0.13-1.51-0.39-1.89c-0.26-0.38-0.59-0.58-0.99-0.58c-0.38,0-0.71,0.19-0.97,0.57S-718.01,115.94-718.01,116.7z"/>
		<path class="st7" d="M-698.91,120.67v-1.14c-0.23,0.41-0.53,0.74-0.9,0.97c-0.37,0.23-0.76,0.35-1.17,0.35
			c-0.41,0-0.78-0.11-1.1-0.32c-0.32-0.21-0.57-0.52-0.73-0.92s-0.24-0.97-0.24-1.73v-4.82h1.65v3.49c0,1,0.02,1.63,0.08,1.9
			c0.05,0.27,0.16,0.48,0.33,0.63c0.17,0.15,0.38,0.22,0.62,0.22c0.28,0,0.53-0.1,0.76-0.29c0.23-0.19,0.39-0.44,0.46-0.75
			c0.07-0.3,0.11-0.97,0.11-2v-3.21h1.65v7.6H-698.91z"/>
		<path class="st7" d="M-681.22,115.31l-1.63,0.36c-0.12-0.8-0.5-1.2-1.13-1.2c-0.41,0-0.74,0.17-0.99,0.52
			c-0.25,0.34-0.37,0.93-0.37,1.75c0,0.91,0.12,1.54,0.37,1.92c0.25,0.37,0.58,0.56,1,0.56c0.31,0,0.57-0.11,0.77-0.32
			c0.2-0.21,0.34-0.59,0.43-1.13l1.63,0.34c-0.33,1.83-1.3,2.75-2.89,2.75c-1.02,0-1.77-0.39-2.26-1.16
			c-0.49-0.77-0.74-1.71-0.74-2.8c0-1.3,0.28-2.3,0.83-2.98c0.56-0.68,1.29-1.02,2.19-1.02c0.73,0,1.33,0.19,1.79,0.58
			S-681.42,114.47-681.22,115.31z"/>
		<path class="st7" d="M-668.13,113.07v1.6h-1.12v3.07c0,0.66,0.02,1.05,0.05,1.15c0.07,0.19,0.2,0.29,0.41,0.29
			c0.15,0,0.37-0.06,0.66-0.19l0.14,1.56c-0.38,0.2-0.81,0.3-1.3,0.3c-0.42,0-0.76-0.1-1.01-0.3c-0.25-0.2-0.42-0.49-0.51-0.87
			c-0.07-0.28-0.1-0.84-0.1-1.69v-3.32h-0.76v-1.6h0.76v-1.51l1.65-1.17v2.69H-668.13z"/>
		<path class="st7" d="M-657.99,112.03v-1.86h1.65v1.86H-657.99z M-657.99,120.67v-7.6h1.65v7.6H-657.99z"/>
		<path class="st7" d="M-646.04,116.76c0-0.75,0.15-1.42,0.44-2.04c0.3-0.61,0.68-1.07,1.16-1.38c0.48-0.31,1.01-0.46,1.61-0.46
			c1,0,1.79,0.39,2.36,1.18c0.57,0.79,0.86,1.71,0.86,2.76c0,0.78-0.15,1.49-0.45,2.12c-0.3,0.63-0.69,1.11-1.17,1.42
			c-0.48,0.32-1.02,0.48-1.59,0.48c-0.93,0-1.69-0.35-2.31-1.06C-645.74,119.08-646.04,118.07-646.04,116.76z M-644.35,116.87
			c0,0.77,0.15,1.35,0.45,1.75c0.3,0.4,0.67,0.59,1.09,0.59c0.42,0,0.77-0.2,1.07-0.6s0.44-0.98,0.44-1.76
			c0-0.76-0.15-1.33-0.45-1.73s-0.66-0.6-1.08-0.6c-0.42,0-0.77,0.2-1.07,0.6C-644.2,115.52-644.35,116.1-644.35,116.87z"/>
		<path class="st7" d="M-623.65,120.67h-1.65v-3.89c0-0.78-0.03-1.3-0.09-1.56c-0.06-0.26-0.18-0.46-0.35-0.59
			c-0.17-0.14-0.36-0.21-0.58-0.21c-0.28,0-0.53,0.09-0.75,0.27c-0.22,0.18-0.38,0.43-0.47,0.74c-0.09,0.32-0.14,0.91-0.14,1.79
			v3.45h-1.65v-7.6h1.53v1.11c0.27-0.43,0.58-0.75,0.92-0.97s0.72-0.32,1.13-0.32c0.48,0,0.89,0.13,1.22,0.38
			c0.33,0.25,0.56,0.57,0.69,0.97c0.13,0.39,0.19,0.96,0.19,1.71V120.67z"/>
	</g>
	<g>
		<g>
			<path class="st8" d="M-855.73,69.6h13.94c6.57,0,10.55,4.29,10.55,10.07c0,4.24-2.91,7.58-6.84,8.8l7.31,10.44h-6.78l-6.15-9.22
				h-6.62v9.22h-5.41V69.6z M-850.32,84.54h8.11c3.87,0,5.56-2.28,5.56-4.88c0-2.65-1.7-4.93-5.56-4.93h-8.11V84.54z"/>
			<path class="st8" d="M-805.33,69.6h3.29l12.4,29.31h-5.83l-2.28-5.51h-12.4l-2.23,5.51h-5.78L-805.33,69.6z M-799.66,88.57
				l-4.24-10.49l-4.29,10.49H-799.66z"/>
			<path class="st0" d="M-769.07,80.94v17.96h-5.41V69.02l18.92,18.55V69.6h5.41v29.89L-769.07,80.94z"/>
			<path class="st0" d="M-726.2,80.94v17.96h-5.41V69.02l18.92,18.55V69.6h5.41v29.89L-726.2,80.94z"/>
			<path class="st8" d="M-679.29,69.6h3.29l12.4,29.31h-5.83l-2.28-5.51h-12.4l-2.23,5.51h-5.78L-679.29,69.6z M-673.62,88.57
				l-4.24-10.49l-4.29,10.49H-673.62z"/>
			<path class="st8" d="M-643.04,80.94v17.96h-5.41V69.02l18.92,18.55V69.6h5.41v29.89L-643.04,80.94z"/>
		</g>
	</g>
	<g>
		<g>
			<path class="st9" d="M-1026.03,41.39c9.54-5.79,21.51-4.22,29.29,3.06l3.82-2.28c-9.1-9.31-23.72-11.49-35.33-4.44
				c-11.48,6.97-16.32,20.73-12.49,33l3.81-2.28C-1039.62,58.28-1035.47,47.12-1026.03,41.39z"/>
		</g>
		<g>
			<g>
				<path class="st0" d="M-975.37,78.36c6.97,11.49,3.3,26.5-8.19,33.48c-11.49,6.97-26.5,3.3-33.48-8.19
					c-0.12-0.2-0.24-0.41-0.35-0.62l-3.66,2.22c0.12,0.21,0.23,0.41,0.35,0.62c8.21,13.52,25.83,17.83,39.35,9.62
					c13.52-8.21,17.83-25.83,9.62-39.35c-0.12-0.2-0.26-0.4-0.39-0.6l-3.66,2.22C-975.62,77.96-975.49,78.15-975.37,78.36z"/>
			</g>
			<g>
				<path class="st0" d="M-956.69,67.02c13.22,21.79,6.26,50.27-15.53,63.49c-21.79,13.22-50.27,6.26-63.49-15.53
					c-0.12-0.2-0.23-0.41-0.35-0.62l-3.66,2.22c0.12,0.21,0.23,0.41,0.35,0.62c14.47,23.84,45.53,31.43,69.37,16.96
					c23.84-14.47,31.43-45.53,16.96-69.37c-0.12-0.2-0.26-0.4-0.39-0.6l-3.66,2.22C-956.95,66.62-956.81,66.81-956.69,67.02z"/>
			</g>
			<g>
				<path class="st9" d="M-966.78,139.46c-2.52,1.53-5.21,2.82-8.02,3.89c-11.48,4.37-24.87,5-35.8,2.69l-2.45,3.54
					c15.79,4.54,33.35,2.73,48.5-6.46c15.15-9.2,24.86-23.94,28.11-40.04l-4.27,0.54C-944.46,117.01-953.98,131.69-966.78,139.46z"
					/>
			</g>
			<g>
				<path class="st9" d="M-966.03,72.69c10.1,16.64,4.78,38.39-11.86,48.48c-16.64,10.1-38.39,4.78-48.48-11.86
					c-3.43-5.64-5.01-9.99-5.05-16.16l-4.25,0.66c0.43,6.08,2.26,12.15,5.64,17.72c11.34,18.68,35.68,24.63,54.36,13.29
					c18.68-11.34,24.63-35.68,13.29-54.36c-3.38-5.57-7.92-9.99-13.11-13.18l-2.18,3.69C-972.21,63.86-969.45,67.04-966.03,72.69z"
					/>
			</g>
			
				<rect x="-1033.03" y="76.15" transform="matrix(0.8586 -0.5127 0.5127 0.8586 -188.3887 -516.7959)" class="st9" width="4.36" height="13.79"/>
			
				<rect x="-988.96" y="49.83" transform="matrix(0.8586 -0.5127 0.5127 0.8586 -168.6601 -497.9219)" class="st9" width="4.36" height="13.79"/>
			<path class="st0" d="M-990.76,95.01l-4.49,2.68c-1.57,0.93-3.59,0.42-4.53-1.14l-4.41-7.39c-0.93-1.57-0.42-3.59,1.14-4.53
				l4.49-2.68c1.57-0.93,3.59-0.42,4.53,1.14l4.41,7.39C-988.68,92.05-989.2,94.07-990.76,95.01z"/>
		</g>
	</g>
	<g>
		<path class="st0" d="M-1011.02,190.02c-12.65,9.95-31.32,2.47-33.61-13.45l-19.86-138.09c-0.32-2.24-0.29-4.41,0.05-6.47
			c0.12-0.72,0.28-1.43,0.47-2.13l-10.89-11.02c-1.46,3.65-2.04,7.77-1.42,12.13l22.45,156.08c2.59,18,23.69,26.45,37.99,15.2
			l19.85-15.62l-7.4-2.65L-1011.02,190.02z"/>
		<path class="st0" d="M-1085.93,9.69c0,0,0.42-0.3,1.18-0.85l-1.18-1.19V9.69z"/>
	</g>
	<g>
		<path class="st0" d="M-1011.02,190.02c-12.65,9.95-31.32,2.47-33.61-13.45l-19.86-138.09c-0.56-3.9-0.03-7.6,1.3-10.86
			c-4.32-1.33-9.32-2.98-12.97-4.2c-0.43,2.41-0.5,4.94-0.12,7.57l22.45,156.08c2.59,18,23.69,26.45,37.99,15.2l28.51-22.42
			l-3.16-5.98L-1011.02,190.02z"/>
	</g>
</g>
<g>
	<g>
		<path class="st0" d="M188.21,64.29L41.82,5.7C24.94-1.06,7.07,12.99,9.66,30.99l22.45,156.08c2.59,18,23.69,26.45,37.99,15.2
			l123.94-97.48C208.33,93.55,205.1,71.05,188.21,64.29z M184.57,103.77L74.91,190.02c-12.65,9.95-31.32,2.47-33.61-13.45
			L21.44,38.48C19.15,22.55,34.96,10.12,49.89,16.1l129.52,51.84C194.35,73.92,197.21,93.83,184.57,103.77z"/>
	</g>
	<g>
		<path class="st0" d="M188.21,64.29L41.82,5.7C24.94-1.06,7.07,12.99,9.66,30.99l22.45,156.08c2.59,18,23.69,26.45,37.99,15.2
			l123.94-97.48C208.33,93.55,205.1,71.05,188.21,64.29z M184.57,103.77L74.91,190.02c-12.65,9.95-31.32,2.47-33.61-13.45
			L21.44,38.48C19.15,22.55,34.96,10.12,49.89,16.1l129.52,51.84C194.35,73.92,197.21,93.83,184.57,103.77z"/>
	</g>
	<radialGradient id="SVGID_6_" cx="37.5451" cy="10.4324" r="22.1582" gradientUnits="userSpaceOnUse">
		<stop  offset="0" style="stop-color:#7D4E24"/>
		<stop  offset="1" style="stop-color:#FFFFFF"/>
	</radialGradient>
	<path class="st10" d="M43.89,14.66l2.92-3.59c0,0,0.26-1.27,0.63-3.13L41.82,5.7C27.4-0.08,12.27,9.34,9.78,23.42
		c3.65,1.22,8.64,2.87,12.97,4.2C26.12,19.35,34.68,13.85,43.89,14.66z"/>
	<radialGradient id="SVGID_7_" cx="119.2948" cy="41.3608" r="21.5865" gradientUnits="userSpaceOnUse">
		<stop  offset="0" style="stop-color:#7D4E24"/>
		<stop  offset="1" style="stop-color:#FFFFFF"/>
	</radialGradient>
	<path class="st11" d="M155.33,58.3l1.37-6.62l-52.8-21.13c-0.49,1.98-1.06,4.3-1.59,6.54L155.33,58.3z"/>
	<radialGradient id="SVGID_8_" cx="143.1667" cy="140.8619" r="31.7172" gradientUnits="userSpaceOnUse">
		<stop  offset="0" style="stop-color:#7D4E24"/>
		<stop  offset="1" style="stop-color:#FFFFFF"/>
	</radialGradient>
	<polygon class="st12" points="95.44,173.87 98.6,179.85 163.83,128.56 161.66,121.79 	"/>
	
		<radialGradient id="SVGID_9_" cx="-2046.308" cy="720.8179" r="93.5556" fx="-2114.4189" fy="656.6809" gradientTransform="matrix(0 1 -1 0 828.6993 2137.1248)" gradientUnits="userSpaceOnUse">
		<stop  offset="0" style="stop-color:#56B4B9"/>
		<stop  offset="0.1011" style="stop-color:#4EB0B3"/>
		<stop  offset="0.1525" style="stop-color:#4BADB0"/>
		<stop  offset="1" style="stop-color:#008A84"/>
	</radialGradient>
	<path class="st13" d="M189.23,78.24L59,3.05C43.99-5.62,25.21,5.22,25.21,22.56v150.37c0,17.34,18.77,28.18,33.79,19.51
		l130.23-75.19C204.25,108.59,204.25,86.91,189.23,78.24L59,3.05C43.99-5.62,25.21,5.22,25.21,22.56v150.37
		c0,17.34,18.77,28.18,33.79,19.51l130.23-75.19C204.25,108.59,204.25,86.91,189.23,78.24z"/>
	<path class="st5" d="M57.55,154.85c-9.55-16.86-15-36.35-15-57.1c0-21.6,5.91-41.82,16.18-59.14c5.34-9,11.86-17.22,19.35-24.44
		L58.81,3.05C43.79-5.62,25.02,5.22,25.02,22.56v20.67v106.5v23.2c0,17.34,18.77,28.18,33.79,19.51l19.26-11.12
		C70.02,173.56,63.09,164.65,57.55,154.85z"/>
	<path class="st5" d="M189.04,78.24L171.6,68.17l-93.53-54L58.81,3.05C43.79-5.62,25.02,5.22,25.02,22.56v20.67
		c10.33-3.01,21.26-4.64,32.56-4.64c0.38,0,0.76,0.01,1.15,0.01c43.13,0.42,80.62,24.35,100.29,59.59
		c5.14,9.21,9.06,19.19,11.55,29.72l18.48-10.67C204.05,108.59,204.05,86.91,189.04,78.24z"/>
	<path class="st5" d="M189.04,78.24L171.6,68.17c-2.79,10.69-7.06,20.77-12.59,30.03c-20.26,33.94-57.34,56.67-99.74,56.67
		c-0.58,0-1.15-0.01-1.73-0.02c-11.31-0.16-22.23-1.94-32.53-5.12v23.2c0,17.34,18.77,28.18,33.79,19.51l19.26-11.12l92.49-53.4
		l18.48-10.67C204.05,108.59,204.05,86.91,189.04,78.24z"/>
	
		<radialGradient id="SVGID_10_" cx="-2039.8398" cy="737.8392" r="93.5556" fx="-2054.1135" fy="740.6059" gradientTransform="matrix(0 1 -1 0 828.6993 2137.1248)" gradientUnits="userSpaceOnUse">
		<stop  offset="0" style="stop-color:#56B4B9;stop-opacity:0"/>
		<stop  offset="0.2119" style="stop-color:#51B1B5;stop-opacity:0.2119"/>
		<stop  offset="0.4535" style="stop-color:#43A6A8;stop-opacity:0.4535"/>
		<stop  offset="0.7097" style="stop-color:#2B9695;stop-opacity:0.7097"/>
		<stop  offset="0.9746" style="stop-color:#00817B;stop-opacity:0.9746"/>
		<stop  offset="1" style="stop-color:#007E78"/>
	</radialGradient>
	<path class="st14" d="M189.23,78.24L59,3.05C43.99-5.62,25.21,5.22,25.21,22.56v150.37c0,17.34,18.77,28.18,33.79,19.51
		l130.23-75.19C204.25,108.59,204.25,86.91,189.23,78.24L59,3.05C43.99-5.62,25.21,5.22,25.21,22.56v150.37
		c0,17.34,18.77,28.18,33.79,19.51l130.23-75.19C204.25,108.59,204.25,86.91,189.23,78.24z"/>
	<g>
		<g>
			<path class="st9" d="M59.9,41.39c9.54-5.79,21.51-4.22,29.29,3.06L93,42.18c-9.1-9.31-23.72-11.49-35.33-4.44
				c-11.48,6.97-16.32,20.73-12.49,33L49,68.46C46.31,58.28,50.46,47.12,59.9,41.39z"/>
		</g>
		<g>
			<g>
				<path class="st0" d="M110.56,78.36c6.97,11.49,3.3,26.5-8.19,33.48c-11.49,6.97-26.5,3.3-33.48-8.19
					c-0.12-0.2-0.24-0.41-0.35-0.62l-3.66,2.22c0.12,0.21,0.23,0.41,0.35,0.62c8.21,13.52,25.83,17.83,39.35,9.62
					c13.52-8.21,17.83-25.83,9.62-39.35c-0.12-0.2-0.26-0.4-0.39-0.6l-3.66,2.22C110.3,77.96,110.43,78.15,110.56,78.36z"/>
			</g>
			<g>
				<path class="st0" d="M129.24,67.02c13.22,21.79,6.26,50.27-15.53,63.49s-50.27,6.26-63.49-15.53c-0.12-0.2-0.23-0.41-0.35-0.62
					l-3.66,2.22c0.12,0.21,0.23,0.41,0.35,0.62c14.47,23.84,45.53,31.43,69.37,16.96c23.84-14.47,31.43-45.53,16.96-69.37
					c-0.12-0.2-0.26-0.4-0.39-0.6l-3.66,2.22C128.98,66.62,129.11,66.81,129.24,67.02z"/>
			</g>
			<g>
				<path class="st9" d="M119.14,139.46c-2.52,1.53-5.21,2.82-8.02,3.89c-11.48,4.37-24.87,5-35.8,2.69l-2.45,3.54
					c15.79,4.54,33.35,2.73,48.5-6.46c15.15-9.2,24.86-23.94,28.11-40.04l-4.27,0.54C141.47,117.01,131.94,131.69,119.14,139.46z"/>
			</g>
			<g>
				<path class="st9" d="M119.9,72.69c10.1,16.64,4.78,38.39-11.86,48.48c-16.64,10.1-38.39,4.78-48.48-11.86
					c-3.43-5.64-5.01-9.99-5.05-16.16l-4.25,0.66c0.43,6.08,2.26,12.15,5.64,17.72c11.34,18.68,35.68,24.63,54.36,13.29
					s24.63-35.68,13.29-54.36c-3.38-5.57-7.92-9.99-13.11-13.18l-2.18,3.69C113.72,63.86,116.47,67.04,119.9,72.69z"/>
			</g>
			
				<rect x="52.9" y="76.15" transform="matrix(0.8586 -0.5127 0.5127 0.8586 -34.7873 39.9862)" class="st9" width="4.36" height="13.79"/>
			
				<rect x="96.97" y="49.83" transform="matrix(0.8586 -0.5127 0.5127 0.8586 -15.0587 58.8601)" class="st9" width="4.36" height="13.79"/>
			<path class="st0" d="M95.17,95.01l-4.49,2.68c-1.57,0.93-3.59,0.42-4.53-1.14l-4.41-7.39c-0.93-1.57-0.42-3.59,1.14-4.53
				l4.49-2.68c1.57-0.93,3.59-0.42,4.53,1.14l4.41,7.39C97.24,92.05,96.73,94.07,95.17,95.01z"/>
		</g>
	</g>
	<g>
		<path class="st0" d="M74.91,190.02c-12.65,9.95-31.32,2.47-33.61-13.45L21.44,38.48c-0.32-2.24-0.29-4.41,0.05-6.47
			c0.12-0.72,0.28-1.43,0.47-2.13L11.08,18.86c-1.46,3.65-2.04,7.77-1.42,12.13l22.45,156.08c2.59,18,23.69,26.45,37.99,15.2
			l19.85-15.62l-7.4-2.65L74.91,190.02z"/>
		<path class="st0" d="M0,9.69c0,0,0.42-0.3,1.18-0.85L0,7.65V9.69z"/>
	</g>
	<g>
		<path class="st0" d="M74.91,190.02c-12.65,9.95-31.32,2.47-33.61-13.45L21.44,38.48c-0.56-3.9-0.03-7.6,1.3-10.86
			c-4.32-1.33-9.32-2.98-12.97-4.2c-0.43,2.41-0.5,4.94-0.12,7.57l22.45,156.08c2.59,18,23.69,26.45,37.99,15.2l28.51-22.42
			l-3.16-5.98L74.91,190.02z"/>
	</g>
</g>
</svg>
